<svg width="32" height="32" viewBox="0 0 32 32" fill="none" xmlns="http://www.w3.org/2000/svg">
<path fill-rule="evenodd" clip-rule="evenodd" d="M6.49683 3.08267L1.02442 14.5751C1.00253 14.6168 0.994997 14.6645 1.00297 14.7108C1.01095 14.7572 1.034 14.7996 1.06854 14.8315L15.8409 28.994C15.8834 29.0323 15.9386 29.0535 15.9958 29.0535C16.0531 29.0535 16.1083 29.0323 16.1508 28.994L30.932 14.8315C30.9661 14.7994 30.9889 14.757 30.9969 14.7107C31.0049 14.6645 30.9976 14.6169 30.9761 14.5751L25.5037 3.08267C25.4891 3.04269 25.4624 3.00833 25.4271 2.98447C25.3919 2.96061 25.3501 2.94848 25.3076 2.9498H6.69097C6.64902 2.95095 6.60827 2.96407 6.57353 2.98761C6.53878 3.01115 6.51149 3.04413 6.49487 3.08267H6.49683Z" fill="#50AF95"/>
<path fill-rule="evenodd" clip-rule="evenodd" d="M17.9014 15.7509C17.7956 15.7597 17.2474 15.795 16.0271 15.795C15.0549 15.795 14.3651 15.7686 14.1175 15.7509C10.3606 15.5832 7.55819 14.9287 7.55819 14.1507C7.55819 13.3726 10.3606 12.7098 14.1175 12.5421V15.0969C14.3627 15.1145 15.0638 15.1587 16.036 15.1587C17.2028 15.1587 17.7862 15.1057 17.8926 15.0969V12.5421C21.6408 12.7098 24.4431 13.3643 24.4431 14.1418C24.4431 14.9194 21.6486 15.5832 17.9014 15.7509ZM17.9014 12.2857V9.99562H23.1351V6.50391H8.88437V9.99562H14.1175V12.2857C9.86541 12.4818 6.66541 13.3197 6.66541 14.3365C6.66541 15.3533 9.86541 16.1843 14.1175 16.3873V23.7164H17.9014V16.3873C22.1448 16.1912 25.3364 15.3528 25.3364 14.3453C25.3364 13.3378 22.1448 12.4798 17.9014 12.2862V12.2857Z" fill="white"/>
</svg>
