<svg width="32" height="32" viewBox="0 0 32 32" fill="none" xmlns="http://www.w3.org/2000/svg">
<rect width="32" height="32" rx="16" fill="black"/>
<path d="M9.92524 19.2222C10.0354 19.1169 10.1847 19.0578 10.3404 19.0578H24.7058C24.9674 19.0578 25.0984 19.3606 24.9133 19.5376L22.0748 22.2521C21.9646 22.3575 21.8153 22.4166 21.6596 22.4166H7.29425C7.03258 22.4166 6.90158 22.1138 7.08667 21.9367L9.92524 19.2222Z" fill="url(#paint0_linear_2012_158)"/>
<path d="M9.92524 9.08113C10.0354 8.97579 10.1847 8.91662 10.3404 8.91663H24.7058C24.9674 8.91663 25.0984 9.21948 24.9133 9.39653L22.0748 12.111C21.9646 12.2163 21.8153 12.2755 21.6596 12.2755H7.29425C7.03258 12.2755 6.90158 11.9726 7.08667 11.7956L9.92524 9.08113Z" fill="url(#paint1_linear_2012_158)"/>
<path d="M22.0748 14.1194C21.9646 14.0141 21.8153 13.9549 21.6596 13.9549H7.29425C7.03258 13.9549 6.90158 14.2578 7.08667 14.4348L9.92524 17.1493C10.0354 17.2546 10.1847 17.3138 10.3404 17.3138H24.7058C24.9674 17.3138 25.0984 17.0109 24.9133 16.8339L22.0748 14.1194Z" fill="url(#paint2_linear_2012_158)"/>
<defs>
<linearGradient id="paint0_linear_2012_158" x1="19.375" y1="8.79163" x2="9.74893" y2="22.6385" gradientUnits="userSpaceOnUse">
<stop stop-color="#00FFA3"/>
<stop offset="1" stop-color="#DC1FFF"/>
</linearGradient>
<linearGradient id="paint1_linear_2012_158" x1="19.375" y1="8.79163" x2="9.74893" y2="22.6385" gradientUnits="userSpaceOnUse">
<stop stop-color="#00FFA3"/>
<stop offset="1" stop-color="#DC1FFF"/>
</linearGradient>
<linearGradient id="paint2_linear_2012_158" x1="19.375" y1="8.79163" x2="9.74893" y2="22.6385" gradientUnits="userSpaceOnUse">
<stop stop-color="#00FFA3"/>
<stop offset="1" stop-color="#DC1FFF"/>
</linearGradient>
</defs>
</svg>
