<svg width="32" height="32" viewBox="0 0 32 32" fill="none" xmlns="http://www.w3.org/2000/svg">
<g clip-path="url(#clip0_2012_145)">
<path d="M16 32C7.16344 32 0 24.8366 0 16C0 7.16344 7.16344 0 16 0C24.8366 0 32 7.16344 32 16C32 24.8366 24.8366 32 16 32Z" fill="black"/>
<path d="M8.69892 7.03748H5.71396L11.9284 13.481C14.1786 15.8144 17.8266 15.8144 20.0717 13.481L26.2874 7.03748H23.3024L18.5831 11.9322C17.1559 13.408 14.848 13.408 13.4247 11.9322L8.69892 7.03748ZM23.3396 24.9626H26.3258L20.0717 18.4756C17.8215 16.1421 14.1735 16.1421 11.9232 18.4756L5.66916 24.9626H8.6554L13.4144 20.0244C14.8416 18.5485 17.1495 18.5485 18.5728 20.0244L23.3396 24.9626Z" fill="white"/>
</g>
<defs>
<clipPath id="clip0_2012_145">
<rect width="32" height="32" fill="white"/>
</clipPath>
</defs>
</svg>
